# xmcd CD database file
#
# Track frame offsets:
#	150
#	17982
#	39166
#	53008
#	67543
#	92645
#	113154
#	131771
#	146798
#	170888
#	203830
#	228014
#	258016
#
# Disc length: 3983 seconds
#
# Revision: 2
# Processed by: cddbd v1.4b41PL1 Copyright (c) Steve Scherf et al.
# Submitted via: Feurio! 1.60 - http://www.feurio.com
#
DISCID=a60f8d0d,a70f8d0d
DTITLE=AC-DC - Sin City
DYEAR=1900
DGENRE=
TTITLE0=Can I sit next to you girl
TTITLE1=Jail break
TTITLE2=Dirty deal done dirty cheap
TTITLE3=Girls got rythem
TTITLE4=Sin city
TTITLE5=Walk all over you
TTITLE6=Rock'n'Roll ain't noise pollution
TTITLE7=You shock me all night long
TTITLE8=Long way to top
TTITLE9=Soul stripper
TTITLE10=High voltage
TTITLE11=She's got  balls
TTITLE12=Baby please don't go
EXTD=
EXTT0=
EXTT1=
EXTT2=
EXTT3=
EXTT4=
EXTT5=
EXTT6=
EXTT7=
EXTT8=
EXTT9=
EXTT10=
EXTT11=
EXTT12=
PLAYORDER=
